<svg width="153" height="20" viewBox="0 0 153 20" fill="none" xmlns="http://www.w3.org/2000/svg">
<path d="M42 0L44.2451 6.90983H51.5106L45.6327 11.1803L47.8779 18.0902L42 13.8197L36.1221 18.0902L38.3673 11.1803L32.4894 6.90983H39.7549L42 0Z" fill="url(#paint0_linear_57_142)"/>
<path d="M74 0L76.2451 6.90983H83.5106L77.6327 11.1803L79.8779 18.0902L74 13.8197L68.1221 18.0902L70.3673 11.1803L64.4894 6.90983H71.7549L74 0Z" fill="url(#paint1_linear_57_142)"/>
<path d="M110 0L112.245 6.90983H119.511L113.633 11.1803L115.878 18.0902L110 13.8197L104.122 18.0902L106.367 11.1803L100.489 6.90983H107.755L110 0Z" fill="url(#paint2_linear_57_142)"/>
<path d="M143 0L145.245 6.90983H152.511L146.633 11.1803L148.878 18.0902L143 13.8197L137.122 18.0902L139.367 11.1803L133.489 6.90983H140.755L143 0Z" fill="url(#paint3_linear_57_142)"/>
<path d="M10 0L12.2451 6.90983H19.5106L13.6327 11.1803L15.8779 18.0902L10 13.8197L4.12215 18.0902L6.36729 11.1803L0.489435 6.90983H7.75486L10 0Z" fill="url(#paint4_linear_57_142)"/>
<defs>
<linearGradient id="paint0_linear_57_142" x1="42" y1="0" x2="42" y2="20" gradientUnits="userSpaceOnUse">
<stop offset="0.135317" stop-color="#F55E0A"/>
<stop offset="0.364583" stop-color="#F55E0A"/>
<stop offset="0.520833" stop-color="#F55E0A"/>
<stop offset="0.833333" stop-color="#F55E0A"/>
<stop offset="1" stop-color="#F55E0A"/>
</linearGradient>
<linearGradient id="paint1_linear_57_142" x1="74" y1="0" x2="74" y2="20" gradientUnits="userSpaceOnUse">
<stop offset="0.135317" stop-color="#F55E0A"/>
<stop offset="0.364583" stop-color="#F55E0A"/>
<stop offset="0.520833" stop-color="#F55E0A"/>
<stop offset="0.833333" stop-color="#F55E0A"/>
<stop offset="1" stop-color="#F55E0A"/>
</linearGradient>
<linearGradient id="paint2_linear_57_142" x1="110" y1="0" x2="110" y2="20" gradientUnits="userSpaceOnUse">
<stop offset="0.135317" stop-color="#F55E0A"/>
<stop offset="0.364583" stop-color="#F55E0A"/>
<stop offset="0.520833" stop-color="#F55E0A"/>
<stop offset="0.833333" stop-color="#F55E0A"/>
<stop offset="1" stop-color="#F55E0A"/>
</linearGradient>
<linearGradient id="paint3_linear_57_142" x1="143" y1="0" x2="143" y2="20" gradientUnits="userSpaceOnUse">
<stop offset="0.135317" stop-color="#F55E0A"/>
<stop offset="0.364583" stop-color="#F55E0A"/>
<stop offset="0.520833" stop-color="#F55E0A"/>
<stop offset="0.833333" stop-color="#F55E0A"/>
<stop offset="1" stop-color="#F55E0A"/>
</linearGradient>
<linearGradient id="paint4_linear_57_142" x1="10" y1="0" x2="10" y2="20" gradientUnits="userSpaceOnUse">
<stop offset="0.135317" stop-color="#F55E0A"/>
<stop offset="0.364583" stop-color="#F55E0A"/>
<stop offset="0.520833" stop-color="#F55E0A"/>
<stop offset="0.833333" stop-color="#F55E0A"/>
<stop offset="1" stop-color="#F55E0A"/>
</linearGradient>
</defs>
</svg>
