<svg width="96" height="90" viewBox="0 0 96 90" fill="none" xmlns="http://www.w3.org/2000/svg">
<g clip-path="url(#clip0_28_1176)">
<path d="M20.997 54.9662C34.4603 53.2162 47.9973 51.5109 61.4606 49.7609C61.6104 49.4327 61.7611 48.9654 61.9109 48.6372C57.9274 47.3379 53.8701 45.994 49.961 44.6002C47.6747 43.7719 45.4628 42.8491 43.5489 41.5482C39.5738 38.8572 41.006 34.2782 46.7172 31.038C48.6455 29.9727 50.7955 28.9024 52.7204 28.394C62.1223 25.9959 71.4489 23.8315 80.7763 21.528C81.4425 21.3734 82.1823 21.2634 82.6987 21.437C83.1413 21.5659 83.7297 22.0625 83.6527 22.5746C83.5003 23.3203 82.9018 24.4938 82.3093 24.6931C80.4563 25.5246 78.6787 26.1224 76.8275 26.6756C69.3496 28.7043 61.7245 30.6437 54.1722 32.767C51.951 33.3751 49.5783 34.5898 46.1695 36.0139C48.1579 37.2203 49.1873 38.1241 50.5146 38.65C56.6372 40.6883 62.9089 42.5375 69.0314 44.5757C70.4334 45.0072 71.9096 45.344 72.8643 46.3423C73.7464 47.1568 74.5507 48.6225 74.3204 50.0194C74.0122 52.0675 71.9352 53.3218 69.9357 53.9248C68.0844 54.4779 66.2332 55.0311 64.3835 55.3058C53.5088 56.8103 42.7821 58.265 31.9072 59.7696C30.2058 59.9945 28.4299 60.314 25.6187 60.7039C29.9632 63.4788 35.8095 62.2768 38.8123 66.8919C36.5166 67.5945 35.0343 68.2321 33.7772 68.3077C24.0934 68.4394 15.0106 66.98 6.45116 64.5804C2.835 63.6437 3.15136 60.204 7.08846 57.0048C8.87106 55.572 10.801 54.2285 12.8021 53.3471C18.2872 50.808 23.7716 48.4079 29.3296 46.0525C30.293 45.6591 31.7709 45.7177 32.1374 46.2194C32.7952 47.4566 31.5306 48.7847 30.1212 49.6059C27.0797 51.3927 23.8912 53.0899 20.8506 54.7376C20.9994 54.5489 20.9979 54.827 20.997 54.9662Z" fill="#DB6E6F"/>
</g>
<defs>
<clipPath id="clip0_28_1176">
<rect width="55.318" height="77.2675" fill="white" transform="matrix(0.854961 0.518692 -0.619059 0.785345 47.8331 0.234283)"/>
</clipPath>
</defs>
</svg>
