<svg width="103" height="173" viewBox="0 0 103 173" fill="none" xmlns="http://www.w3.org/2000/svg">
<g clip-path="url(#clip0_76_128)">
<path d="M22.8163 101.157C37.6952 100.1 52.6621 99.1412 67.541 98.0843C67.6694 97.4787 67.7819 96.6055 67.9102 95.9999C63.2886 92.8172 58.5791 89.5359 54.0296 86.1842C51.3671 84.1986 48.7767 82.0438 46.4746 79.2131C41.6946 73.3545 42.7476 64.7916 48.758 59.5382C50.7908 57.8198 53.0716 56.1297 55.1677 55.4818C65.4163 52.4815 75.6087 49.9178 85.7852 47.0865C86.5133 46.9034 87.3292 46.8189 87.9289 47.2414C88.4406 47.5653 89.16 48.6215 89.1354 49.5933C89.0546 51.0017 88.5253 53.1565 87.8852 53.4382C85.9087 54.7199 83.9884 55.565 81.9802 56.3115C73.8435 58.9314 65.531 61.3542 57.3223 64.1431C54.9061 64.9319 52.3932 66.8615 48.7444 69.0164C51.1185 71.6781 52.3813 73.5935 53.9324 74.8328C61.0406 79.804 68.2931 84.4372 75.4012 89.4083C77.0246 90.4789 78.7198 91.38 79.9102 93.4642C80.9972 95.1824 82.0754 98.14 81.9857 100.788C81.8873 104.675 79.7106 106.731 77.5423 107.548C75.5341 108.295 73.5259 109.041 71.4858 109.252C59.4787 110.281 47.6314 111.239 35.6241 112.268C33.7443 112.409 31.7923 112.719 28.6884 112.987C33.8925 119.07 40.3003 117.761 44.2225 127.154C41.7342 128.112 40.1497 129.084 38.7498 129.014C27.9118 127.606 17.5556 123.24 7.67259 117.156C3.50654 114.734 3.44624 108.171 7.47317 102.692C9.29834 100.242 11.2994 97.9883 13.436 96.6361C19.2776 92.6926 25.1352 89.0163 31.0806 85.4388C32.1129 84.8472 33.7765 85.2134 34.2478 86.2415C35.1342 88.7342 33.877 91.0721 32.3964 92.4101C29.203 95.3256 25.8339 98.0435 22.6246 100.692C22.7686 100.354 22.8005 100.889 22.8163 101.157Z" fill="#DB6E6F"/>
</g>
<defs>
<clipPath id="clip0_76_128">
<rect width="84.8346" height="117.988" fill="white" transform="matrix(0.665645 0.746268 -0.392358 0.919813 46.2935 0.473053)"/>
</clipPath>
</defs>
</svg>
