<svg width="184" height="77" viewBox="0 0 184 77" fill="none" xmlns="http://www.w3.org/2000/svg">
<path d="M17.344 63.216C15.424 63.216 13.6747 62.9813 12.096 62.512C10.56 62.0427 9.19467 61.4453 8 60.72C6.848 59.9947 5.86667 59.248 5.056 58.48C4.24533 57.712 3.648 57.008 3.264 56.368C2.70933 55.6 2.34667 54.9173 2.176 54.32C2.00533 53.7227 2.048 53.1467 2.304 52.592C2.60267 51.9947 3.136 51.376 3.904 50.736C4.672 50.0533 5.376 49.712 6.016 49.712C6.69867 49.6693 7.33867 49.8613 7.936 50.288C8.576 50.7147 9.19467 51.312 9.792 52.08C10.816 53.4453 11.968 54.4267 13.248 55.024C14.528 55.5787 15.808 55.856 17.088 55.856C18.752 55.856 20.2027 55.6427 21.44 55.216C22.6773 54.7467 23.6373 54.064 24.32 53.168C25.0453 52.272 25.408 51.12 25.408 49.712C25.408 48.56 25.0453 47.6213 24.32 46.896C23.6373 46.128 22.72 45.488 21.568 44.976C20.416 44.4213 19.1147 43.9307 17.664 43.504C16.256 43.0347 14.8267 42.5227 13.376 41.968C12.352 41.6267 11.328 41.2213 10.304 40.752C9.28 40.24 8.32 39.664 7.424 39.024C6.57067 38.384 5.80267 37.6373 5.12 36.784C4.48 35.888 3.968 34.864 3.584 33.712C3.2 32.56 3.008 31.216 3.008 29.68C3.008 27.248 3.60533 25.1147 4.8 23.28C5.99467 21.4027 7.65867 19.9307 9.792 18.864C11.9253 17.7547 14.3573 17.2 17.088 17.2C18.8373 17.2 20.3947 17.3707 21.76 17.712C23.168 18.0107 24.3627 18.416 25.344 18.928C26.368 19.3973 27.2 19.888 27.84 20.4C28.5227 20.8693 29.0133 21.2747 29.312 21.616C30.2933 22.5973 30.8267 23.4293 30.912 24.112C31.04 24.752 30.656 25.6267 29.76 26.736C28.864 27.888 27.9893 28.528 27.136 28.656C26.3253 28.7413 25.408 28.4 24.384 27.632C23.7013 26.9067 23.0187 26.3307 22.336 25.904C21.6533 25.4347 20.8853 25.0933 20.032 24.88C19.2213 24.6667 18.2187 24.56 17.024 24.56C16.1707 24.56 15.3387 24.688 14.528 24.944C13.76 25.1573 13.0987 25.4987 12.544 25.968C11.9893 26.3947 11.5413 26.928 11.2 27.568C10.9013 28.208 10.752 28.9333 10.752 29.744C10.752 30.8533 11.0507 31.7707 11.648 32.496C12.288 33.1787 13.1413 33.7547 14.208 34.224C15.2747 34.6507 16.4693 35.056 17.792 35.44C19.1147 35.824 20.4587 36.2293 21.824 36.656C23.232 37.1253 24.6187 37.68 25.984 38.32C27.3493 38.96 28.5653 39.7707 29.632 40.752C30.6987 41.6907 31.552 42.8853 32.192 44.336C32.832 45.744 33.152 47.472 33.152 49.52C33.152 51.8667 32.704 53.9147 31.808 55.664C30.912 57.4133 29.696 58.8427 28.16 59.952C26.624 61.0613 24.9173 61.872 23.04 62.384C21.1627 62.9387 19.264 63.216 17.344 63.216ZM49.5235 62.64C47.9448 62.64 46.5368 62.5333 45.2995 62.32C44.1048 62.1067 43.0595 61.744 42.1635 61.232C41.3102 60.72 40.6062 60.0373 40.0515 59.184C39.4968 58.288 39.0702 57.2 38.7715 55.92C38.5155 54.64 38.3875 53.104 38.3875 51.312V20.464C38.3875 19.7387 38.4515 19.0987 38.5795 18.544C38.7502 17.9467 39.0915 17.4773 39.6035 17.136C40.1582 16.752 41.0328 16.56 42.2275 16.56C43.4222 16.56 44.2755 16.7307 44.7875 17.072C45.3422 17.4133 45.6835 17.8827 45.8115 18.48C45.9822 19.0347 46.0675 19.6747 46.0675 20.4V50.992C46.0675 51.8027 46.1102 52.4853 46.1955 53.04C46.3235 53.552 46.5155 53.9787 46.7715 54.32C47.0702 54.6187 47.4328 54.832 47.8595 54.96C48.3288 55.088 48.8835 55.152 49.5235 55.152C50.0782 55.152 50.5688 55.216 50.9955 55.344C51.4648 55.472 51.8275 55.792 52.0835 56.304C52.3822 56.816 52.5315 57.648 52.5315 58.8C52.5315 59.9947 52.3822 60.8693 52.0835 61.424C51.8275 61.9787 51.4648 62.32 50.9955 62.448C50.5262 62.576 50.0355 62.64 49.5235 62.64ZM83.3805 62.512C82.1432 62.512 81.2258 62.2773 80.6285 61.808C80.0312 61.3387 79.7325 60.6987 79.7325 59.888L80.1805 57.776C79.8392 58.3307 79.2632 58.992 78.4525 59.76C77.6418 60.4853 76.5752 61.1467 75.2525 61.744C73.9298 62.2987 72.3298 62.576 70.4525 62.576C68.4472 62.576 66.5485 62.1707 64.7565 61.36C63.0072 60.5067 61.4498 59.3547 60.0845 57.904C58.7618 56.4107 57.6952 54.7253 56.8845 52.848C56.1165 50.928 55.7325 48.88 55.7325 46.704C55.7325 44.6133 56.1165 42.6507 56.8845 40.816C57.6952 38.9387 58.7832 37.2747 60.1485 35.824C61.5138 34.3733 63.0712 33.2427 64.8205 32.432C66.6125 31.5787 68.4898 31.152 70.4525 31.152C72.2018 31.152 73.6738 31.3867 74.8685 31.856C76.1058 32.3253 77.1512 32.9227 78.0045 33.648C78.8578 34.3307 79.5618 35.056 80.1165 35.824L79.7325 33.968C79.7325 33.0293 80.0312 32.3253 80.6285 31.856C81.2258 31.344 82.1645 31.088 83.4445 31.088C84.6392 31.088 85.4925 31.28 86.0045 31.664C86.5165 32.0053 86.8365 32.496 86.9645 33.136C87.0925 33.7333 87.1565 34.416 87.1565 35.184V58.608C87.1565 59.3333 87.0925 59.9947 86.9645 60.592C86.8365 61.1893 86.4952 61.6587 85.9405 62C85.4285 62.3413 84.5752 62.512 83.3805 62.512ZM71.6045 55.088C73.0552 55.088 74.3565 54.7253 75.5085 54C76.6605 53.2747 77.5778 52.2933 78.2605 51.056C78.9858 49.776 79.3485 48.368 79.3485 46.832C79.3485 45.168 78.9858 43.7173 78.2605 42.48C77.5352 41.2427 76.5752 40.2827 75.3805 39.6C74.2285 38.8747 72.9272 38.512 71.4765 38.512C69.8978 38.512 68.4898 38.896 67.2525 39.664C66.0152 40.3893 65.0338 41.392 64.3085 42.672C63.6258 43.9093 63.2845 45.3173 63.2845 46.896C63.2845 48.432 63.6472 49.8187 64.3725 51.056C65.0978 52.2933 66.0792 53.2747 67.3165 54C68.5965 54.7253 70.0258 55.088 71.6045 55.088ZM97.354 62.576C96.202 62.576 95.3487 62.384 94.794 62C94.282 61.6587 93.962 61.2107 93.834 60.656C93.706 60.0587 93.642 59.3973 93.642 58.672V34.736C93.642 34.0533 93.706 33.4347 93.834 32.88C93.962 32.3253 94.3033 31.8987 94.858 31.6C95.4127 31.2587 96.266 31.088 97.418 31.088C98.442 31.088 99.21 31.216 99.722 31.472C100.234 31.728 100.575 32.048 100.746 32.432C100.917 32.816 101.002 33.2 101.002 33.584C101.045 33.968 101.087 34.2667 101.13 34.48L100.874 36.528C101.13 35.8453 101.557 35.184 102.154 34.544C102.751 33.904 103.477 33.328 104.33 32.816C105.183 32.2613 106.101 31.8347 107.082 31.536C108.106 31.1947 109.151 31.024 110.218 31.024C112.223 31.024 114.015 31.3867 115.594 32.112C117.173 32.8373 118.517 33.8613 119.626 35.184C120.778 36.5067 121.653 38.0853 122.25 39.92C122.847 41.712 123.146 43.7387 123.146 46V58.736C123.146 59.4613 123.061 60.1227 122.89 60.72C122.762 61.2747 122.442 61.7227 121.93 62.064C121.418 62.4053 120.543 62.576 119.306 62.576C118.111 62.576 117.237 62.384 116.682 62C116.127 61.6587 115.786 61.2107 115.658 60.656C115.53 60.0587 115.466 59.3973 115.466 58.672V45.936C115.466 44.4 115.189 43.0773 114.634 41.968C114.122 40.8587 113.354 40.0053 112.33 39.408C111.349 38.8107 110.09 38.512 108.554 38.512C107.061 38.512 105.759 38.832 104.65 39.472C103.541 40.0693 102.687 40.9227 102.09 42.032C101.493 43.1413 101.194 44.4427 101.194 45.936V58.736C101.194 59.4613 101.13 60.1227 101.002 60.72C100.874 61.2747 100.533 61.7227 99.978 62.064C99.466 62.4053 98.5913 62.576 97.354 62.576ZM144.623 62.768C142.575 62.768 140.569 62.4267 138.607 61.744C136.687 61.0187 134.937 59.9733 133.359 58.608C131.823 57.2427 130.585 55.5787 129.647 53.616C128.751 51.6107 128.303 49.3493 128.303 46.832C128.303 44.3147 128.751 42.0747 129.647 40.112C130.585 38.1493 131.823 36.4853 133.359 35.12C134.895 33.7547 136.623 32.7093 138.543 31.984C140.463 31.2587 142.447 30.896 144.495 30.896C145.988 30.896 147.396 31.1093 148.719 31.536C150.084 31.9627 151.257 32.4747 152.239 33.072C153.22 33.6693 153.924 34.2667 154.351 34.864C154.905 35.376 155.375 35.8667 155.759 36.336C156.143 36.8053 156.271 37.3813 156.143 38.064C156.015 38.4907 155.823 38.896 155.567 39.28C155.311 39.6213 154.991 39.984 154.607 40.368C153.583 41.52 152.58 41.9467 151.599 41.648C151.044 41.3493 150.489 41.0293 149.935 40.688C149.38 40.3467 148.804 40.0267 148.207 39.728C147.652 39.3867 147.076 39.1093 146.479 38.896C145.881 38.6827 145.22 38.576 144.495 38.576C142.873 38.576 141.423 38.9387 140.143 39.664C138.905 40.3467 137.924 41.3067 137.199 42.544C136.516 43.7813 136.175 45.2107 136.175 46.832C136.175 48.4533 136.516 49.904 137.199 51.184C137.924 52.4213 138.905 53.4027 140.143 54.128C141.38 54.8107 142.788 55.152 144.367 55.152C145.135 55.152 145.86 55.0667 146.543 54.896C147.268 54.6827 147.908 54.4267 148.463 54.128C149.017 53.7867 149.465 53.4453 149.807 53.104C150.276 52.8053 150.703 52.528 151.087 52.272C151.471 52.016 151.876 51.888 152.303 51.888C152.815 51.888 153.305 52.08 153.775 52.464C154.287 52.8053 154.841 53.36 155.439 54.128C155.993 54.768 156.292 55.3867 156.335 55.984C156.42 56.5813 156.292 57.1573 155.951 57.712C155.652 58.2667 155.14 58.7787 154.415 59.248C153.903 59.76 153.135 60.2933 152.111 60.848C151.129 61.36 149.977 61.808 148.655 62.192C147.375 62.576 146.031 62.768 144.623 62.768Z" fill="#2C1C1C"/>
<path opacity="0.15" d="M169.916 11.1847C167.612 10.4592 165.649 10.1051 165.532 10.3938C165.414 10.6826 167.186 11.5049 169.49 12.2304C171.794 12.956 173.757 13.3101 173.874 13.0213C173.992 12.7326 172.22 11.9103 169.916 11.1847Z" fill="#DC7272"/>
<path d="M162.266 17.4596L162.033 30.0385C162.032 30.0875 162.048 30.1352 162.077 30.175C162.107 30.2148 162.15 30.2447 162.2 30.2607C162.25 30.2766 162.305 30.2778 162.356 30.264C162.408 30.2502 162.454 30.2222 162.488 30.1838L171.366 20.3645C171.906 19.7686 172.286 19.0664 172.474 18.317C172.661 17.5677 172.651 16.7932 172.443 16.059C172.236 15.3248 171.837 14.6524 171.281 14.0986C170.726 13.5449 170.029 13.126 169.25 12.8773C168.471 12.6287 167.632 12.5576 166.806 12.67C165.979 12.7825 165.188 13.0752 164.499 13.5234C163.811 13.9716 163.245 14.5622 162.85 15.2452C162.455 15.9283 162.242 16.6839 162.229 17.448L162.266 17.4596Z" fill="#DC7272"/>
<path d="M169.894 19.3939L162.109 26.6656L162.055 30.0403C162.054 30.0893 162.069 30.137 162.099 30.1768C162.129 30.2166 162.172 30.2465 162.222 30.2625C162.272 30.2784 162.326 30.2795 162.378 30.2657C162.429 30.2519 162.475 30.2238 162.51 30.1854L171.373 20.3571C171.816 19.8655 172.152 19.3011 172.36 18.6963C172.569 18.0915 172.646 17.4582 172.588 16.833C172.529 16.2078 172.337 15.603 172.021 15.0535C171.705 14.504 171.272 14.0206 170.747 13.6311C171.312 14.5254 171.535 15.5749 171.381 16.6168C171.226 17.6587 170.704 18.6348 169.894 19.3939Z" fill="#E4BDBD"/>
<path d="M162.266 17.4596L162.033 30.0385C162.032 30.0875 162.048 30.1352 162.077 30.175C162.107 30.2148 162.15 30.2447 162.2 30.2607C162.25 30.2766 162.305 30.2778 162.356 30.264C162.408 30.2502 162.454 30.2222 162.488 30.1838L171.366 20.3645C171.906 19.7686 172.286 19.0664 172.474 18.317C172.661 17.5677 172.651 16.7932 172.443 16.059C172.236 15.3248 171.837 14.6524 171.281 14.0986C170.726 13.5449 170.029 13.126 169.25 12.8773C168.471 12.6287 167.632 12.5576 166.806 12.67C165.979 12.7825 165.188 13.0752 164.499 13.5234C163.811 13.9716 163.245 14.5622 162.85 15.2452C162.455 15.9283 162.242 16.6839 162.229 17.448L162.266 17.4596Z" stroke="#DC7878" stroke-linecap="round" stroke-linejoin="round"/>
<path opacity="0.15" d="M182.145 25.316C181.433 23.6636 180.626 22.4015 180.342 22.4969C180.059 22.5923 180.406 24.0092 181.118 25.6615C181.83 27.3139 182.637 28.576 182.921 28.4806C183.204 28.3852 182.857 26.9683 182.145 25.316Z" fill="#DC7272"/>
<path d="M173.168 24.5773L163.533 31.3937C163.495 31.4201 163.468 31.4548 163.454 31.4931C163.441 31.5313 163.442 31.5712 163.457 31.6073C163.473 31.6433 163.502 31.6737 163.541 31.6943C163.58 31.7149 163.627 31.7246 163.675 31.7221L175.999 31.1456C176.748 31.1115 177.488 30.9312 178.158 30.6198C178.828 30.3085 179.408 29.8753 179.848 29.3568C180.288 28.8383 180.576 28.2498 180.688 27.6409C180.799 27.032 180.731 26.4206 180.489 25.8584C180.247 25.2961 179.837 24.7996 179.296 24.4105C178.754 24.0215 178.096 23.7515 177.377 23.6233C176.658 23.4951 175.899 23.5125 175.165 23.674C174.43 23.8354 173.742 24.1362 173.157 24.551L173.168 24.5773Z" fill="#DC7272"/>
<path d="M175.907 29.8802L166.346 30.1817L163.702 31.8648C163.663 31.8891 163.634 31.9199 163.618 31.9529C163.602 31.986 163.601 32.0197 163.613 32.0494C163.626 32.0791 163.653 32.1033 163.689 32.1187C163.726 32.134 163.771 32.1398 163.818 32.1353L175.905 31.0083C176.51 30.9518 177.117 30.8119 177.691 30.5964C178.265 30.381 178.795 30.0944 179.25 29.753C179.706 29.4117 180.078 29.0224 180.345 28.6075C180.612 28.1927 180.769 27.7606 180.806 27.336C180.397 28.0332 179.696 28.6604 178.81 29.1204C177.924 29.5804 176.904 29.8475 175.907 29.8802Z" fill="#E4BDBD"/>
<path d="M173.168 24.5773L163.533 31.3937C163.495 31.4201 163.468 31.4548 163.454 31.4931C163.441 31.5313 163.442 31.5712 163.457 31.6073C163.473 31.6433 163.502 31.6737 163.541 31.6943C163.58 31.7149 163.627 31.7246 163.675 31.7221L175.999 31.1456C176.748 31.1115 177.488 30.9312 178.158 30.6198C178.828 30.3085 179.408 29.8753 179.848 29.3568C180.288 28.8383 180.576 28.2498 180.688 27.6409C180.799 27.032 180.731 26.4206 180.489 25.8584C180.247 25.2961 179.837 24.7996 179.296 24.4105C178.754 24.0215 178.096 23.7515 177.377 23.6233C176.658 23.4951 175.899 23.5125 175.165 23.674C174.43 23.8354 173.742 24.1362 173.157 24.551L173.168 24.5773Z" stroke="#DC7878" stroke-linecap="round" stroke-linejoin="round"/>
</svg>
