<svg width="306" height="85" viewBox="0 0 306 85" fill="none" xmlns="http://www.w3.org/2000/svg">
<path d="M19.512 77.368C17.352 77.368 15.384 77.104 13.608 76.576C11.88 76.048 10.344 75.376 9 74.56C7.704 73.744 6.6 72.904 5.688 72.04C4.776 71.176 4.104 70.384 3.672 69.664C3.048 68.8 2.64 68.032 2.448 67.36C2.256 66.688 2.304 66.04 2.592 65.416C2.928 64.744 3.528 64.048 4.392 63.328C5.256 62.56 6.048 62.176 6.768 62.176C7.536 62.128 8.256 62.344 8.928 62.824C9.648 63.304 10.344 63.976 11.016 64.84C12.168 66.376 13.464 67.48 14.904 68.152C16.344 68.776 17.784 69.088 19.224 69.088C21.096 69.088 22.728 68.848 24.12 68.368C25.512 67.84 26.592 67.072 27.36 66.064C28.176 65.056 28.584 63.76 28.584 62.176C28.584 60.88 28.176 59.824 27.36 59.008C26.592 58.144 25.56 57.424 24.264 56.848C22.968 56.224 21.504 55.672 19.872 55.192C18.288 54.664 16.68 54.088 15.048 53.464C13.896 53.08 12.744 52.624 11.592 52.096C10.44 51.52 9.36 50.872 8.352 50.152C7.392 49.432 6.528 48.592 5.76 47.632C5.04 46.624 4.464 45.472 4.032 44.176C3.6 42.88 3.384 41.368 3.384 39.64C3.384 36.904 4.056 34.504 5.4 32.44C6.744 30.328 8.616 28.672 11.016 27.472C13.416 26.224 16.152 25.6 19.224 25.6C21.192 25.6 22.944 25.792 24.48 26.176C26.064 26.512 27.408 26.968 28.512 27.544C29.664 28.072 30.6 28.624 31.32 29.2C32.088 29.728 32.64 30.184 32.976 30.568C34.08 31.672 34.68 32.608 34.776 33.376C34.92 34.096 34.488 35.08 33.48 36.328C32.472 37.624 31.488 38.344 30.528 38.488C29.616 38.584 28.584 38.2 27.432 37.336C26.664 36.52 25.896 35.872 25.128 35.392C24.36 34.864 23.496 34.48 22.536 34.24C21.624 34 20.496 33.88 19.152 33.88C18.192 33.88 17.256 34.024 16.344 34.312C15.48 34.552 14.736 34.936 14.112 35.464C13.488 35.944 12.984 36.544 12.6 37.264C12.264 37.984 12.096 38.8 12.096 39.712C12.096 40.96 12.432 41.992 13.104 42.808C13.824 43.576 14.784 44.224 15.984 44.752C17.184 45.232 18.528 45.688 20.016 46.12C21.504 46.552 23.016 47.008 24.552 47.488C26.136 48.016 27.696 48.64 29.232 49.36C30.768 50.08 32.136 50.992 33.336 52.096C34.536 53.152 35.496 54.496 36.216 56.128C36.936 57.712 37.296 59.656 37.296 61.96C37.296 64.6 36.792 66.904 35.784 68.872C34.776 70.84 33.408 72.448 31.68 73.696C29.952 74.944 28.032 75.856 25.92 76.432C23.808 77.056 21.672 77.368 19.512 77.368ZM55.7139 76.72C53.9379 76.72 52.3539 76.6 50.9619 76.36C49.6179 76.12 48.4419 75.712 47.4339 75.136C46.4739 74.56 45.6819 73.792 45.0579 72.832C44.4339 71.824 43.9539 70.6 43.6179 69.16C43.3299 67.72 43.1859 65.992 43.1859 63.976V29.272C43.1859 28.456 43.2579 27.736 43.4019 27.112C43.5939 26.44 43.9779 25.912 44.5539 25.528C45.1779 25.096 46.1619 24.88 47.5059 24.88C48.8499 24.88 49.8099 25.072 50.3859 25.456C51.0099 25.84 51.3939 26.368 51.5379 27.04C51.7299 27.664 51.8259 28.384 51.8259 29.2V63.616C51.8259 64.528 51.8739 65.296 51.9699 65.92C52.1139 66.496 52.3299 66.976 52.6179 67.36C52.9539 67.696 53.3619 67.936 53.8419 68.08C54.3699 68.224 54.9939 68.296 55.7139 68.296C56.3379 68.296 56.8899 68.368 57.3699 68.512C57.8979 68.656 58.3059 69.016 58.5939 69.592C58.9299 70.168 59.0979 71.104 59.0979 72.4C59.0979 73.744 58.9299 74.728 58.5939 75.352C58.3059 75.976 57.8979 76.36 57.3699 76.504C56.8419 76.648 56.2899 76.72 55.7139 76.72ZM93.8031 76.576C92.4111 76.576 91.3791 76.312 90.7071 75.784C90.0351 75.256 89.6991 74.536 89.6991 73.624L90.2031 71.248C89.8191 71.872 89.1711 72.616 88.2591 73.48C87.3471 74.296 86.1471 75.04 84.6591 75.712C83.1711 76.336 81.3711 76.648 79.2591 76.648C77.0031 76.648 74.8671 76.192 72.8511 75.28C70.8831 74.32 69.1311 73.024 67.5951 71.392C66.1071 69.712 64.9071 67.816 63.9951 65.704C63.1311 63.544 62.6991 61.24 62.6991 58.792C62.6991 56.44 63.1311 54.232 63.9951 52.168C64.9071 50.056 66.1311 48.184 67.6671 46.552C69.2031 44.92 70.9551 43.648 72.9231 42.736C74.9391 41.776 77.0511 41.296 79.2591 41.296C81.2271 41.296 82.8831 41.56 84.2271 42.088C85.6191 42.616 86.7951 43.288 87.7551 44.104C88.7151 44.872 89.5071 45.688 90.1311 46.552L89.6991 44.464C89.6991 43.408 90.0351 42.616 90.7071 42.088C91.3791 41.512 92.4351 41.224 93.8751 41.224C95.2191 41.224 96.1791 41.44 96.7551 41.872C97.3311 42.256 97.6911 42.808 97.8351 43.528C97.9791 44.2 98.0511 44.968 98.0511 45.832V72.184C98.0511 73 97.9791 73.744 97.8351 74.416C97.6911 75.088 97.3071 75.616 96.6831 76C96.1071 76.384 95.1471 76.576 93.8031 76.576ZM80.5551 68.224C82.1871 68.224 83.6511 67.816 84.9471 67C86.2431 66.184 87.2751 65.08 88.0431 63.688C88.8591 62.248 89.2671 60.664 89.2671 58.936C89.2671 57.064 88.8591 55.432 88.0431 54.04C87.2271 52.648 86.1471 51.568 84.8031 50.8C83.5071 49.984 82.0431 49.576 80.4111 49.576C78.6351 49.576 77.0511 50.008 75.6591 50.872C74.2671 51.688 73.1631 52.816 72.3471 54.256C71.5791 55.648 71.1951 57.232 71.1951 59.008C71.1951 60.736 71.6031 62.296 72.4191 63.688C73.2351 65.08 74.3391 66.184 75.7311 67C77.1711 67.816 78.7791 68.224 80.5551 68.224ZM109.523 76.648C108.227 76.648 107.267 76.432 106.643 76C106.067 75.616 105.707 75.112 105.563 74.488C105.419 73.816 105.347 73.072 105.347 72.256V45.328C105.347 44.56 105.419 43.864 105.563 43.24C105.707 42.616 106.091 42.136 106.715 41.8C107.339 41.416 108.299 41.224 109.595 41.224C110.747 41.224 111.611 41.368 112.187 41.656C112.763 41.944 113.147 42.304 113.339 42.736C113.531 43.168 113.627 43.6 113.627 44.032C113.675 44.464 113.723 44.8 113.771 45.04L113.483 47.344C113.771 46.576 114.251 45.832 114.923 45.112C115.595 44.392 116.411 43.744 117.371 43.168C118.331 42.544 119.363 42.064 120.467 41.728C121.619 41.344 122.795 41.152 123.995 41.152C126.251 41.152 128.267 41.56 130.043 42.376C131.819 43.192 133.331 44.344 134.579 45.832C135.875 47.32 136.859 49.096 137.531 51.16C138.203 53.176 138.539 55.456 138.539 58V72.328C138.539 73.144 138.443 73.888 138.251 74.56C138.107 75.184 137.747 75.688 137.171 76.072C136.595 76.456 135.611 76.648 134.219 76.648C132.875 76.648 131.891 76.432 131.267 76C130.643 75.616 130.259 75.112 130.115 74.488C129.971 73.816 129.899 73.072 129.899 72.256V57.928C129.899 56.2 129.587 54.712 128.963 53.464C128.387 52.216 127.523 51.256 126.371 50.584C125.267 49.912 123.851 49.576 122.123 49.576C120.443 49.576 118.979 49.936 117.731 50.656C116.483 51.328 115.523 52.288 114.851 53.536C114.179 54.784 113.843 56.248 113.843 57.928V72.328C113.843 73.144 113.771 73.888 113.627 74.56C113.483 75.184 113.099 75.688 112.475 76.072C111.899 76.456 110.915 76.648 109.523 76.648ZM162.7 76.864C160.396 76.864 158.14 76.48 155.932 75.712C153.772 74.896 151.804 73.72 150.028 72.184C148.3 70.648 146.908 68.776 145.852 66.568C144.844 64.312 144.34 61.768 144.34 58.936C144.34 56.104 144.844 53.584 145.852 51.376C146.908 49.168 148.3 47.296 150.028 45.76C151.756 44.224 153.7 43.048 155.86 42.232C158.02 41.416 160.252 41.008 162.556 41.008C164.236 41.008 165.82 41.248 167.308 41.728C168.844 42.208 170.164 42.784 171.268 43.456C172.372 44.128 173.164 44.8 173.644 45.472C174.268 46.048 174.796 46.6 175.228 47.128C175.66 47.656 175.804 48.304 175.66 49.072C175.516 49.552 175.3 50.008 175.012 50.44C174.724 50.824 174.364 51.232 173.932 51.664C172.78 52.96 171.652 53.44 170.548 53.104C169.924 52.768 169.3 52.408 168.676 52.024C168.052 51.64 167.404 51.28 166.732 50.944C166.108 50.56 165.46 50.248 164.788 50.008C164.116 49.768 163.372 49.648 162.556 49.648C160.732 49.648 159.1 50.056 157.66 50.872C156.268 51.64 155.164 52.72 154.348 54.112C153.58 55.504 153.196 57.112 153.196 58.936C153.196 60.76 153.58 62.392 154.348 63.832C155.164 65.224 156.268 66.328 157.66 67.144C159.052 67.912 160.636 68.296 162.412 68.296C163.276 68.296 164.092 68.2 164.86 68.008C165.676 67.768 166.396 67.48 167.02 67.144C167.644 66.76 168.148 66.376 168.532 65.992C169.06 65.656 169.54 65.344 169.972 65.056C170.404 64.768 170.86 64.624 171.34 64.624C171.916 64.624 172.468 64.84 172.996 65.272C173.572 65.656 174.196 66.28 174.868 67.144C175.492 67.864 175.828 68.56 175.876 69.232C175.972 69.904 175.828 70.552 175.444 71.176C175.108 71.8 174.532 72.376 173.716 72.904C173.14 73.48 172.276 74.08 171.124 74.704C170.02 75.28 168.724 75.784 167.236 76.216C165.796 76.648 164.284 76.864 162.7 76.864ZM185.523 76.72C184.179 76.72 183.195 76.504 182.571 76.072C181.995 75.688 181.635 75.16 181.491 74.488C181.347 73.816 181.275 73.096 181.275 72.328V29.344C181.275 28.528 181.347 27.808 181.491 27.184C181.683 26.512 182.067 25.984 182.643 25.6C183.267 25.216 184.251 25.024 185.595 25.024C186.939 25.024 187.899 25.24 188.475 25.672C189.099 26.056 189.483 26.584 189.627 27.256C189.819 27.88 189.915 28.6 189.915 29.416V45.688C190.875 44.584 192.099 43.576 193.587 42.664C195.123 41.704 196.971 41.224 199.131 41.224C202.059 41.224 204.675 41.944 206.979 43.384C209.283 44.776 211.107 46.72 212.451 49.216C213.795 51.712 214.467 54.64 214.467 58V72.4C214.467 73.168 214.395 73.888 214.251 74.56C214.107 75.184 213.723 75.688 213.099 76.072C212.523 76.456 211.563 76.648 210.219 76.648C208.875 76.648 207.891 76.456 207.267 76.072C206.643 75.688 206.259 75.184 206.115 74.56C205.971 73.888 205.899 73.12 205.899 72.256V57.928C205.899 56.248 205.611 54.784 205.035 53.536C204.459 52.288 203.595 51.328 202.443 50.656C201.339 49.936 199.947 49.576 198.267 49.576C196.011 49.576 194.115 50.248 192.579 51.592C191.043 52.888 190.155 54.568 189.915 56.632V72.4C189.915 73.168 189.819 73.888 189.627 74.56C189.483 75.232 189.099 75.76 188.475 76.144C187.899 76.528 186.915 76.72 185.523 76.72Z" fill="#E4BDBD"/>
<path opacity="0.15" d="M299.777 84.5314C296.96 84.5149 294.56 84.5068 294.417 84.5134C294.273 84.5199 296.441 84.5386 299.258 84.5551C302.075 84.5716 304.475 84.5797 304.618 84.5731C304.762 84.5666 302.594 84.5479 299.777 84.5314Z" fill="#DC7272"/>
<path d="M290.4 84.6739L290.153 84.9595C290.152 84.9606 290.171 84.9617 290.208 84.9626C290.244 84.9635 290.297 84.9642 290.358 84.9646C290.419 84.9649 290.486 84.965 290.55 84.9647C290.613 84.9643 290.669 84.9637 290.711 84.9628L301.56 84.7401C302.22 84.7266 302.683 84.7107 302.911 84.6937C303.138 84.6767 303.123 84.6591 302.867 84.6424C302.61 84.6257 302.12 84.6105 301.437 84.5979C300.754 84.5853 299.899 84.5757 298.944 84.5701C297.989 84.5644 296.962 84.5628 295.949 84.5653C294.936 84.5678 293.968 84.5745 293.125 84.5846C292.283 84.5948 291.592 84.6082 291.11 84.6237C290.628 84.6392 290.369 84.6563 290.355 84.6737L290.4 84.6739Z" fill="#DC7272"/>
<path d="M299.749 84.718L290.225 84.8829L290.169 84.9596C290.167 84.9607 290.186 84.9618 290.223 84.9627C290.26 84.9636 290.313 84.9643 290.374 84.9646C290.435 84.965 290.502 84.965 290.565 84.9647C290.628 84.9644 290.685 84.9638 290.727 84.9629L301.565 84.7399C302.107 84.7288 302.517 84.716 302.77 84.7022C303.024 84.6885 303.117 84.6741 303.044 84.6599C302.971 84.6457 302.733 84.632 302.344 84.6195C301.955 84.607 301.423 84.596 300.778 84.5872C301.473 84.6075 301.749 84.6313 301.563 84.655C301.378 84.6787 300.74 84.7008 299.749 84.718Z" fill="#E4BDBD"/>
<path d="M290.4 84.6739L290.153 84.9595C290.152 84.9606 290.171 84.9617 290.208 84.9626C290.244 84.9635 290.297 84.9642 290.358 84.9646C290.419 84.9649 290.486 84.965 290.55 84.9647C290.613 84.9643 290.669 84.9637 290.711 84.9628L301.56 84.7401C302.22 84.7266 302.683 84.7107 302.911 84.6937C303.138 84.6767 303.123 84.6591 302.867 84.6424C302.61 84.6257 302.12 84.6105 301.437 84.5979C300.754 84.5853 299.899 84.5757 298.944 84.5701C297.989 84.5644 296.962 84.5628 295.949 84.5653C294.936 84.5678 293.968 84.5745 293.125 84.5846C292.283 84.5948 291.592 84.6082 291.11 84.6237C290.628 84.6392 290.369 84.6563 290.355 84.6737L290.4 84.6739Z" stroke="#DC7878" stroke-linecap="round" stroke-linejoin="round"/>
<path opacity="0.15" d="M233.445 2.56007C227.225 1.4375 221.942 0.865513 221.646 1.28252C221.349 1.69952 226.151 2.94759 232.372 4.07017C238.592 5.19275 243.875 5.76474 244.171 5.34773C244.468 4.93073 239.666 3.68265 233.445 2.56007Z" fill="#DC7272"/>
<path d="M212.413 11.9614L212.615 31.0058C212.615 31.08 212.66 31.1526 212.745 31.2138C212.83 31.2749 212.949 31.3215 213.088 31.3472C213.226 31.3728 213.376 31.3762 213.517 31.3568C213.658 31.3375 213.783 31.2964 213.875 31.2392L237.623 16.6306C239.069 15.7442 240.066 14.6919 240.531 13.5625C240.997 12.4332 240.916 11.2599 240.297 10.1417C239.677 9.02359 238.537 7.99344 236.972 7.13828C235.407 6.28311 233.463 5.62804 231.305 5.22836C229.147 4.82868 226.838 4.69614 224.573 4.84192C222.308 4.98771 220.153 5.40754 218.29 6.06597C216.428 6.7244 214.912 7.60209 213.872 8.62493C212.831 9.64778 212.296 10.7857 212.312 11.9427L212.413 11.9614Z" fill="#DC7272"/>
<path d="M234.024 15.3528L212.953 26.1713L213.032 31.2975C213.032 31.3719 213.078 31.4449 213.163 31.5062C213.249 31.5676 213.369 31.6143 213.509 31.64C213.648 31.6656 213.799 31.669 213.941 31.6495C214.083 31.6301 214.209 31.5888 214.301 31.5314L238.184 16.86C239.378 16.1263 240.269 15.2786 240.806 14.3658C241.342 13.453 241.514 12.493 241.31 11.5414C241.107 10.5897 240.533 9.66502 239.621 8.82068C238.709 7.97635 237.477 7.22901 235.996 6.62174C237.622 7.99732 238.309 9.59849 237.953 11.177C237.596 12.7556 236.215 14.2233 234.024 15.3528Z" fill="#E4BDBD"/>
<path d="M212.413 11.9614L212.615 31.0058C212.615 31.08 212.66 31.1526 212.745 31.2138C212.83 31.2749 212.949 31.3215 213.088 31.3472C213.226 31.3728 213.376 31.3762 213.517 31.3568C213.658 31.3375 213.783 31.2964 213.875 31.2392L237.623 16.6306C239.069 15.7442 240.066 14.6919 240.531 13.5625C240.997 12.4332 240.916 11.2599 240.297 10.1417C239.677 9.02359 238.537 7.99344 236.972 7.13828C235.407 6.28311 233.463 5.62804 231.305 5.22836C229.147 4.82868 226.838 4.69614 224.573 4.84192C222.308 4.98771 220.153 5.40754 218.29 6.06597C216.428 6.7244 214.912 7.60209 213.872 8.62493C212.831 9.64778 212.296 10.7857 212.312 11.9427L212.413 11.9614Z" stroke="#DC7878" stroke-linecap="round" stroke-linejoin="round"/>
<path opacity="0.15" d="M266.399 23.977C264.482 21.4681 262.31 19.5517 261.547 19.6966C260.784 19.8415 261.719 21.9928 263.636 24.5017C265.553 27.0106 267.726 28.927 268.489 28.7821C269.252 28.6372 268.316 26.4859 266.399 23.977Z" fill="#DC7272"/>
<path d="M242.234 22.8553L216.295 33.2051C216.194 33.2452 216.12 33.2979 216.083 33.356C216.047 33.4141 216.049 33.4746 216.091 33.5294C216.133 33.5841 216.212 33.6303 216.317 33.6615C216.422 33.6928 216.547 33.7075 216.676 33.7038L249.855 32.8284C251.87 32.7766 253.864 32.5028 255.667 32.0301C257.471 31.5573 259.031 30.8996 260.216 30.1123C261.401 29.3251 262.177 28.4315 262.477 27.507C262.778 26.5824 262.594 25.6541 261.942 24.8005C261.289 23.9468 260.188 23.1928 258.73 22.6021C257.272 22.0115 255.5 21.6015 253.565 21.4069C251.629 21.2122 249.586 21.2386 247.609 21.4837C245.632 21.7289 243.778 22.1856 242.204 22.8154L242.234 22.8553Z" fill="#DC7272"/>
<path d="M249.609 30.9072L223.868 31.365L216.75 33.9205C216.646 33.9573 216.567 34.0041 216.525 34.0543C216.482 34.1045 216.478 34.1557 216.512 34.2007C216.547 34.2458 216.618 34.2826 216.717 34.3059C216.816 34.3293 216.937 34.3381 217.064 34.3311L249.603 32.62C251.23 32.5343 252.864 32.3218 254.409 31.9947C255.954 31.6675 257.381 31.2323 258.608 30.714C259.834 30.1957 260.835 29.6046 261.554 28.9748C262.273 28.345 262.695 27.6888 262.796 27.0442C261.695 28.1027 259.806 29.055 257.422 29.7535C255.038 30.4519 252.291 30.8574 249.609 30.9072Z" fill="#E4BDBD"/>
<path d="M242.234 22.8553L216.295 33.2051C216.194 33.2452 216.12 33.2979 216.083 33.356C216.047 33.4141 216.049 33.4746 216.091 33.5294C216.133 33.5841 216.212 33.6303 216.317 33.6615C216.422 33.6928 216.547 33.7075 216.676 33.7038L249.855 32.8284C251.87 32.7766 253.864 32.5028 255.667 32.0301C257.471 31.5573 259.031 30.8996 260.216 30.1123C261.401 29.3251 262.177 28.4315 262.477 27.507C262.778 26.5824 262.594 25.6541 261.942 24.8005C261.289 23.9468 260.188 23.1928 258.73 22.6021C257.272 22.0115 255.5 21.6015 253.565 21.4069C251.629 21.2122 249.586 21.2386 247.609 21.4837C245.632 21.7289 243.778 22.1856 242.204 22.8154L242.234 22.8553Z" stroke="#DC7878" stroke-linecap="round" stroke-linejoin="round"/>
</svg>
